<?xml version="1.0" encoding="UTF-8" standalone="no"?>
<svg width="21px" height="25px" viewBox="0 0 21 25" version="1.1" xmlns="http://www.w3.org/2000/svg" xmlns:xlink="http://www.w3.org/1999/xlink">
    <!-- Generator: sketchtool 39.1 (31720) - http://www.bohemiancoding.com/sketch -->
    <title>DCB02EF5-7E14-4B74-8FE4-EFA3FFD565A4</title>
    <desc>Created with sketchtool.</desc>
    <defs></defs>
    <g id="Form" stroke="none" stroke-width="1" fill="none" fill-rule="evenodd">
        <g id="AppPromo/Android-Hovers" transform="translate(-959.000000, -745.000000)" fill="#ffffff">
            <g id="Group" transform="translate(299.000000, 536.000000)">
                <g id="apple/hover" transform="translate(660.000000, 208.731343)">
                    <path d="M20.152648,19.5333106 C19.7907964,20.3774469 19.3624821,21.15447 18.8662284,21.8688539 C18.1897873,22.8427427 17.6359327,23.5168586 17.2090954,23.8912018 C16.5474238,24.5056615 15.8384899,24.8203484 15.0793398,24.8382452 C14.5343469,24.8382452 13.8771061,24.6816475 13.1120482,24.3639778 C12.3444796,24.0477995 11.6390904,23.8912018 10.9941082,23.8912018 C10.3176671,23.8912018 9.59219143,24.0477995 8.8162042,24.3639778 C8.03903541,24.6816475 7.41295816,24.8471937 6.93428008,24.8635992 C6.20629358,24.8949187 5.4806702,24.5712834 4.75637606,23.8912018 C4.29409208,23.4840477 3.71586787,22.7860692 3.02318037,21.7972664 C2.27998133,20.7413502 1.66896893,19.5169051 1.19029085,18.1209481 C0.677643021,16.6131357 0.420654482,15.1530482 0.420654482,13.7394927 C0.420654482,12.1202721 0.767145926,10.7237186 1.46116268,9.55341154 C2.0065987,8.61337771 2.73222208,7.87185015 3.64039595,7.3274866 C4.54856981,6.78312305 5.52985249,6.50572135 6.58660708,6.4879736 C7.16483129,6.4879736 7.92309518,6.66858299 8.86538649,7.02353785 C9.80501929,7.37968584 10.4083516,7.56029523 10.6728725,7.56029523 C10.8706356,7.56029523 11.5408735,7.349112 12.6770878,6.92808781 C13.7515657,6.53763746 14.6584103,6.37596894 15.401314,6.43965202 C17.4143909,6.60370679 18.9267832,7.40503976 19.9325831,8.84872173 C18.1321864,9.95027494 17.2415882,11.4931355 17.2593116,13.4723817 C17.275558,15.0140491 17.8294126,16.2969574 18.9179215,17.3155884 C19.4112213,17.7883644 19.9621221,18.1537591 20.5750545,18.4132639 C20.4421294,18.8025211 20.3018196,19.1753729 20.152648,19.5333106 L20.152648,19.5333106 Z M15.535716,1.18751315 C15.535716,2.39586601 15.0985401,3.52410049 14.2271422,4.56838366 C13.1755569,5.80983084 11.9036113,6.52719761 10.5242918,6.41399982 C10.5067162,6.26903506 10.4965252,6.11646412 10.4965252,5.95613787 C10.4965252,4.79612151 10.996619,3.55467433 11.8847064,2.53962273 C12.3280855,2.02568388 12.8919833,1.59835104 13.5758092,1.25746014 C14.2581581,0.921654944 14.9035833,0.735944945 15.5106079,0.704148148 C15.5283313,0.865682439 15.535716,1.02723164 15.535716,1.18749824 L15.535716,1.18751315 Z" id="Shape"></path>
                </g>
            </g>
        </g>
    </g>
</svg>